<svg xmlns="http://www.w3.org/2000/svg" width="10" height="8" fill="none">
  <path fill="#F4F4FD" d="M8.46075.489373c.16434-.144427.38304-.224272.60995-.222687.22691.001585.44428.084476.60624.231182.16195.146706.25584.345753.26184.555142.00599.20938-.07636.41273-.2297.56713l-4.655 5.37385c-.08004.07958-.17665.14345-.28404.18778-.1074.04433-.22337.06821-.341.07023-.11762.00201-.23448-.0179-.34358-.05853-.10909-.04063-.2082-.10115-.29138-.17794L.707082 4.16599c-.085968-.07394-.15492-.16311-.202744-.26219-.047824-.09908-.07354-.20603-.075613-.31448-.002073-.10845.019539-.21617.063547-.31674.044008-.10058.10951-.19193.192599-.26863.083088-.0767.182061-.13716.291014-.17779.108955-.04062.225655-.06057.343145-.05865.11748.00191.23335.02565.34068.06979.10733.04415.20393.1078.28404.18715l2.443 2.254L8.43858.513066c.0073-.008291.01509-.016201.02334-.023693h-.00117Z"/>
</svg>
