<svg xmlns="http://www.w3.org/2000/svg" width="20" height="20" fill="none"><g fill="#303030" clip-path="url(#a)"><path d="M19.9951 20.0001v-.0008h.005v-7.335c0-3.58837-.7725-6.35253-4.9675-6.35253-2.0167 0-3.37 1.10666-3.9225 2.15583h-.0584V6.64677H7.07422V19.9993h4.14168v-6.6117c0-1.7408.33-3.42417 2.4858-3.42417 2.1242 0 2.1559 1.98667 2.1559 3.53587v6.5008h4.1375ZM.330078 6.64746H4.47675V20H.330078V6.64746ZM2.40167 0C1.07583 0 0 1.07583 0 2.40167 0 3.7275 1.07583 4.82583 2.40167 4.82583c1.32583 0 2.40166-1.09833 2.40166-2.42416C4.8025 1.07583 3.72667 0 2.40167 0Z"/></g><defs><clipPath id="a"><path fill="#fff" d="M0 0h20v20H0z"/></clipPath></defs></svg>